<svg preserveAspectRatio="none" width="100%" height="100%" overflow="visible" style="display: block;" viewBox="0 0 55.3124 44.0552" fill="none" xmlns="http://www.w3.org/2000/svg">
<path id="Vector" d="M13.5562 13.7294L3.60227 22.024L13.5562 30.3185C13.6997 30.4362 13.8186 30.5811 13.9059 30.7449C13.9932 30.9087 14.0472 31.0882 14.0647 31.273C14.0823 31.4577 14.0632 31.6442 14.0083 31.8215C13.9535 31.9989 13.8641 32.1636 13.7453 32.3062C13.6265 32.4488 13.4807 32.5665 13.3162 32.6525C13.1516 32.7385 12.9718 32.791 12.7868 32.8071C12.6019 32.8232 12.4156 32.8026 12.2387 32.7463C12.0619 32.6901 11.8978 32.5994 11.7562 32.4794L0.50618 23.1044C0.347755 22.9725 0.220291 22.8073 0.132817 22.6206C0.0453432 22.4338 0 22.2302 0 22.024C0 21.8178 0.0453432 21.6141 0.132817 21.4274C0.220291 21.2407 0.347755 21.0755 0.50618 20.9435L11.7562 11.5685C12.0431 11.3333 12.4114 11.2211 12.7808 11.2562C13.1501 11.2914 13.4906 11.4711 13.728 11.7561C13.9655 12.0412 14.0807 12.4086 14.0485 12.7782C14.0163 13.1478 13.8393 13.4897 13.5562 13.7294ZM54.8062 20.9435L43.5562 11.5685C43.4145 11.4486 43.2505 11.3579 43.0736 11.3016C42.8967 11.2454 42.7104 11.2247 42.5255 11.2408C42.3406 11.2569 42.1607 11.3095 41.9962 11.3955C41.8317 11.4814 41.6858 11.5991 41.567 11.7418C41.4482 11.8844 41.3588 12.0491 41.304 12.2264C41.2492 12.4038 41.23 12.5902 41.2476 12.775C41.2652 12.9598 41.3192 13.1393 41.4065 13.3031C41.4938 13.4669 41.6126 13.6118 41.7562 13.7294L51.7101 22.024L41.7562 30.3185C41.6126 30.4362 41.4938 30.5811 41.4065 30.7449C41.3192 30.9087 41.2652 31.0882 41.2476 31.273C41.23 31.4577 41.2492 31.6442 41.304 31.8215C41.3588 31.9989 41.4482 32.1636 41.567 32.3062C41.6858 32.4488 41.8317 32.5665 41.9962 32.6525C42.1607 32.7385 42.3406 32.791 42.5255 32.8071C42.7104 32.8232 42.8967 32.8026 43.0736 32.7463C43.2505 32.6901 43.4145 32.5994 43.5562 32.4794L54.8062 23.1044C54.9646 22.9725 55.0921 22.8073 55.1795 22.6206C55.267 22.4338 55.3124 22.2302 55.3124 22.024C55.3124 21.8178 55.267 21.6141 55.1795 21.4274C55.0921 21.2407 54.9646 21.0755 54.8062 20.9435ZM35.6366 0.0841342C35.4628 0.0211221 35.2782 -0.00697121 35.0934 0.00146312C34.9086 0.00989745 34.7274 0.0546936 34.56 0.133287C34.3925 0.211879 34.2423 0.322726 34.1177 0.459477C33.9932 0.596228 33.8969 0.756199 33.8343 0.930228L18.8343 42.1802C18.711 42.5309 18.7315 42.916 18.8914 43.2516C19.0513 43.5871 19.3375 43.8457 19.6874 43.9709C19.8379 44.0248 19.9963 44.0533 20.1562 44.0552C20.4449 44.0553 20.7266 43.9665 20.9631 43.8008C21.1996 43.6352 21.3794 43.4008 21.4781 43.1294L36.4781 1.87945C36.5412 1.70586 36.5695 1.52153 36.5614 1.337C36.5532 1.15247 36.5089 0.971344 36.4307 0.803973C36.3526 0.636602 36.2422 0.486263 36.106 0.361545C35.9697 0.236827 35.8103 0.140173 35.6366 0.0771032V0.0841342Z" fill="var(--fill-0, white)" fill-opacity="0.55"/>
</svg>
