<svg preserveAspectRatio="none" width="100%" height="100%" overflow="visible" style="display: block;" viewBox="0 0 21.7507 18.1295" fill="none" xmlns="http://www.w3.org/2000/svg">
<path id="Vector" d="M21.4849 9.70602L13.3287 17.8638C13.1586 18.0339 12.928 18.1295 12.6875 18.1295C12.447 18.1295 12.2164 18.0339 12.0463 17.8638C11.8763 17.6937 11.7807 17.4631 11.7807 17.2225C11.7807 16.982 11.8763 16.7513 12.0463 16.5812L18.6563 9.97115H0.90625C0.665898 9.97115 0.43539 9.87565 0.265435 9.70567C0.0954798 9.53568 0 9.30513 0 9.06473C0 8.82433 0.0954798 8.59378 0.265435 8.42379C0.43539 8.2538 0.665898 8.15831 0.90625 8.15831H18.6563L12.0463 1.54822C11.8763 1.37814 11.7807 1.14746 11.7807 0.906926C11.7807 0.666395 11.8763 0.435714 12.0463 0.265633C12.2164 0.0955508 12.447 0 12.6875 0C12.928 0 13.1586 0.0955508 13.3287 0.265633L21.4849 8.42343C21.5692 8.50762 21.636 8.60759 21.6816 8.71762C21.7272 8.82766 21.7507 8.94561 21.7507 9.06473C21.7507 9.18385 21.7272 9.3018 21.6816 9.41183C21.636 9.52187 21.5692 9.62184 21.4849 9.70602Z" fill="var(--fill-0, black)"/>
</svg>
