<svg preserveAspectRatio="none" width="100%" height="100%" overflow="visible" style="display: block;" viewBox="0 0 55.3123 45.9161" fill="none" xmlns="http://www.w3.org/2000/svg">
<path id="Vector" d="M55.3123 22.9581C55.3092 20.5131 54.5996 18.1212 53.2691 16.0701C51.9385 14.0189 50.0436 12.3959 47.8123 11.3963V10.7706C47.81 8.39159 47.0208 6.08019 45.5678 4.19647C44.1148 2.31276 42.0796 0.962526 39.7792 0.356129C37.4788 -0.250267 35.0424 -0.0787699 32.8497 0.843902C30.6569 1.76657 28.8309 3.38861 27.6561 5.45729C26.4813 3.38861 24.6553 1.76657 22.4625 0.843902C20.2697 -0.0787699 17.8334 -0.250267 15.533 0.356129C13.2326 0.962526 11.1973 2.31276 9.74434 4.19647C8.29134 6.08019 7.50219 8.39159 7.49984 10.7706V11.3963C5.26683 12.3926 3.3702 14.0143 2.03925 16.0654C0.708292 18.1166 0 20.5094 0 22.9546C0 25.3997 0.708292 27.7925 2.03925 29.8437C3.3702 31.8948 5.26683 33.5166 7.49984 34.5128V35.1456C7.50219 37.5245 8.29134 39.8359 9.74434 41.7197C11.1973 43.6034 13.2326 44.9536 15.533 45.56C17.8334 46.1664 20.2697 45.9949 22.4625 45.0722C24.6553 44.1496 26.4813 42.5275 27.6561 40.4588C28.8309 42.5275 30.6569 44.1496 32.8497 45.0722C35.0424 45.9949 37.4788 46.1664 39.7792 45.56C42.0796 44.9536 44.1148 43.6034 45.5678 41.7197C47.0208 39.8359 47.81 37.5245 47.8123 35.1456V34.5128C50.0436 33.5151 51.9387 31.8936 53.2694 29.8435C54.6001 27.7934 55.3096 25.4022 55.3123 22.9581ZM18.2811 43.1143C16.21 43.1153 14.2199 42.31 12.7324 40.8688C11.2449 39.4277 10.3769 37.4641 10.3123 35.394C11.085 35.5405 11.8697 35.6143 12.6561 35.6143H14.5311C14.904 35.6143 15.2617 35.4662 15.5255 35.2024C15.7892 34.9387 15.9373 34.581 15.9373 34.2081C15.9373 33.8351 15.7892 33.4774 15.5255 33.2137C15.2617 32.95 14.904 32.8018 14.5311 32.8018H12.6561C10.3326 32.8037 8.08329 31.9836 6.30624 30.4867C4.52919 28.9898 3.33893 26.9125 2.94607 24.6224C2.55322 22.3324 2.98309 19.9772 4.15964 17.9736C5.33618 15.9699 7.18354 14.4471 9.37484 13.6745C9.64913 13.5775 9.88659 13.3978 10.0545 13.1602C10.2224 12.9227 10.3125 12.6388 10.3123 12.3479V10.7706C10.3123 8.65712 11.1519 6.63024 12.6463 5.13581C14.1408 3.64138 16.1676 2.80182 18.2811 2.80182C20.3945 2.80182 22.4214 3.64138 23.9158 5.13581C25.4103 6.63024 26.2498 8.65712 26.2498 10.7706V27.8917C25.2412 26.7803 24.0111 25.8923 22.6387 25.2848C21.2663 24.6773 19.7819 24.3637 18.2811 24.3643C17.9081 24.3643 17.5504 24.5125 17.2867 24.7762C17.023 25.0399 16.8748 25.3976 16.8748 25.7706C16.8748 26.1435 17.023 26.5012 17.2867 26.7649C17.5504 27.0287 17.9081 27.1768 18.2811 27.1768C20.3945 27.1768 22.4214 28.0164 23.9158 29.5108C25.4103 31.0052 26.2498 33.0321 26.2498 35.1456C26.2498 37.259 25.4103 39.2859 23.9158 40.7803C22.4214 42.2748 20.3945 43.1143 18.2811 43.1143ZM42.6561 32.8018H40.7811C40.4081 32.8018 40.0504 32.95 39.7867 33.2137C39.523 33.4774 39.3748 33.8351 39.3748 34.2081C39.3748 34.581 39.523 34.9387 39.7867 35.2024C40.0504 35.4662 40.4081 35.6143 40.7811 35.6143H42.6561C43.4425 35.6143 44.2272 35.5405 44.9998 35.394C44.951 36.9586 44.4425 38.4741 43.5378 39.7515C42.633 41.0288 41.3721 42.0115 39.9124 42.5767C38.4527 43.1419 36.8588 43.2647 35.3297 42.9297C33.8007 42.5948 32.4041 41.8169 31.3144 40.6932C30.2247 39.5695 29.49 38.1497 29.2021 36.6111C28.9143 35.0725 29.0859 33.4831 29.6957 32.0414C30.3054 30.5998 31.3263 29.3696 32.6308 28.5045C33.9353 27.6393 35.4658 27.1776 37.0311 27.1768C37.404 27.1768 37.7617 27.0287 38.0255 26.7649C38.2892 26.5012 38.4373 26.1435 38.4373 25.7706C38.4373 25.3976 38.2892 25.0399 38.0255 24.7762C37.7617 24.5125 37.404 24.3643 37.0311 24.3643C35.5302 24.3637 34.0459 24.6773 32.6735 25.2848C31.301 25.8923 30.071 26.7803 29.0623 27.8917V10.7706C29.0623 8.65712 29.9019 6.63024 31.3963 5.13581C32.8908 3.64138 34.9176 2.80182 37.0311 2.80182C39.1445 2.80182 41.1714 3.64138 42.6658 5.13581C44.1603 6.63024 44.9998 8.65712 44.9998 10.7706V12.3479C44.9997 12.6388 45.0898 12.9227 45.2577 13.1602C45.4256 13.3978 45.663 13.5775 45.9373 13.6745C48.1286 14.4471 49.976 15.9699 51.1525 17.9736C52.3291 19.9772 52.759 22.3324 52.3661 24.6224C51.9732 26.9125 50.783 28.9898 49.0059 30.4867C47.2289 31.9836 44.9796 32.8037 42.6561 32.8018ZM45.9373 20.1456C45.9373 20.5185 45.7892 20.8762 45.5255 21.1399C45.2617 21.4037 44.904 21.5518 44.5311 21.5518H43.5936C41.4801 21.5518 39.4533 20.7123 37.9588 19.2178C36.4644 17.7234 35.6248 15.6965 35.6248 13.5831V12.6456C35.6248 12.2726 35.773 11.9149 36.0367 11.6512C36.3004 11.3875 36.6581 11.2393 37.0311 11.2393C37.404 11.2393 37.7617 11.3875 38.0255 11.6512C38.2892 11.9149 38.4373 12.2726 38.4373 12.6456V13.5831C38.4373 14.9506 38.9806 16.2621 39.9476 17.2291C40.9146 18.1961 42.2261 18.7393 43.5936 18.7393H44.5311C44.904 18.7393 45.2617 18.8875 45.5255 19.1512C45.7892 19.4149 45.9373 19.7726 45.9373 20.1456ZM11.7186 21.5518H10.7811C10.4081 21.5518 10.0504 21.4037 9.78672 21.1399C9.52299 20.8762 9.37484 20.5185 9.37484 20.1456C9.37484 19.7726 9.52299 19.4149 9.78672 19.1512C10.0504 18.8875 10.4081 18.7393 10.7811 18.7393H11.7186C13.0861 18.7393 14.3976 18.1961 15.3646 17.2291C16.3316 16.2621 16.8748 14.9506 16.8748 13.5831V12.6456C16.8748 12.2726 17.023 11.9149 17.2867 11.6512C17.5504 11.3875 17.9081 11.2393 18.2811 11.2393C18.654 11.2393 19.0117 11.3875 19.2755 11.6512C19.5392 11.9149 19.6873 12.2726 19.6873 12.6456V13.5831C19.6873 15.6965 18.8478 17.7234 17.3533 19.2178C15.8589 20.7123 13.832 21.5518 11.7186 21.5518Z" fill="var(--fill-0, white)" fill-opacity="0.55"/>
</svg>
