<svg preserveAspectRatio="none" width="100%" height="100%" overflow="visible" style="display: block;" viewBox="0 0 44.0988 53.4891" fill="none" xmlns="http://www.w3.org/2000/svg">
<path id="Vector" d="M22.0812 14.0625C23.4719 14.0625 24.8313 13.6501 25.9876 12.8775C27.1438 12.1049 28.0451 11.0068 28.5772 9.722C29.1094 8.4372 29.2487 7.02345 28.9774 5.65952C28.706 4.2956 28.0364 3.04275 27.0531 2.05941C26.0697 1.07607 24.8169 0.406409 23.4529 0.135107C22.089 -0.136196 20.6753 0.00304654 19.3905 0.535225C18.1057 1.0674 17.0075 1.96862 16.2349 3.1249C15.4623 4.28118 15.05 5.6406 15.05 7.03125C15.05 8.89606 15.7907 10.6845 17.1094 12.0031C18.428 13.3217 20.2164 14.0625 22.0812 14.0625ZM22.0812 2.8125C22.9156 2.8125 23.7312 3.05993 24.425 3.52349C25.1188 3.98705 25.6595 4.64593 25.9788 5.41681C26.2981 6.18768 26.3817 7.03593 26.2189 7.85429C26.0561 8.67265 25.6543 9.42436 25.0643 10.0144C24.4743 10.6044 23.7226 11.0062 22.9042 11.1689C22.0859 11.3317 21.2376 11.2482 20.4668 10.9289C19.6959 10.6096 19.037 10.0688 18.5734 9.37506C18.1099 8.68129 17.8625 7.86564 17.8625 7.03125C17.8625 5.91237 18.3069 4.83932 19.0981 4.04815C19.8893 3.25698 20.9623 2.8125 22.0812 2.8125ZM42.9125 29.3953L32.3164 17.3813C31.6566 16.6329 30.8452 16.0336 29.9359 15.623C29.0267 15.2125 28.0405 15.0001 27.0429 15H17.1195C16.122 14.9998 15.136 15.2118 14.2268 15.622C13.3176 16.0321 12.506 16.631 11.846 17.3789L1.24995 29.3953C0.454926 30.1829 0.00532138 31.254 4.69325e-05 32.3731C-0.00522751 33.4922 0.43426 34.5675 1.22183 35.3625C2.0094 36.1575 3.08053 36.6071 4.1996 36.6124C5.31866 36.6177 6.39399 36.1782 7.18902 35.3906L12.1367 31.4227L7.88745 47.5594C7.44075 48.5745 7.41175 49.7247 7.80673 50.7611C8.20171 51.7974 8.9889 52.6365 9.99793 53.0968C11.007 53.5571 12.1567 53.6016 13.1982 53.2206C14.2398 52.8395 15.0894 52.0637 15.5632 51.0609L22.0812 39.8438L28.5992 51.0727C29.073 52.0754 29.9226 52.8513 30.9642 53.2323C32.0057 53.6133 33.1554 53.5689 34.1645 53.1086C35.1735 52.6482 35.9607 51.8091 36.3557 50.7728C36.7507 49.7364 36.7217 48.5862 36.275 47.5711L32.0257 31.4297L36.9734 35.3906C37.7732 36.151 38.8391 36.5676 39.9426 36.5513C41.046 36.5349 42.0991 36.0869 42.876 35.3032C43.653 34.5195 44.0919 33.4625 44.0987 32.359C44.1055 31.2555 43.6797 30.1932 42.9125 29.4V29.3953ZM40.8898 33.3375C40.7592 33.4683 40.6041 33.572 40.4334 33.6427C40.2627 33.7135 40.0797 33.7499 39.8949 33.7499C39.7101 33.7499 39.5271 33.7135 39.3564 33.6427C39.1857 33.572 39.0306 33.4683 38.9 33.3375C38.8645 33.3001 38.8261 33.2657 38.7851 33.2344L30.4625 26.5594C30.2318 26.3742 29.9486 26.2665 29.6532 26.2515C29.3578 26.2366 29.0651 26.3152 28.817 26.4762C28.5688 26.6371 28.3777 26.8722 28.2708 27.148C28.164 27.4239 28.1468 27.7264 28.2218 28.0125L33.582 48.3867C33.6054 48.4668 33.6344 48.5451 33.6687 48.6211C33.8263 48.9592 33.8431 49.3461 33.7154 49.6967C33.5877 50.0472 33.326 50.3327 32.9878 50.4902C32.6497 50.6478 32.2628 50.6646 31.9123 50.5369C31.5617 50.4092 31.2763 50.1475 31.1187 49.8094C31.1015 49.7707 31.0819 49.7331 31.0601 49.6969L23.2976 36.3281C23.174 36.115 22.9966 35.9381 22.7831 35.8152C22.5696 35.6922 22.3276 35.6275 22.0812 35.6275C21.8348 35.6275 21.5928 35.6922 21.3793 35.8152C21.1658 35.9381 20.9884 36.115 20.8648 36.3281L13.1023 49.6992C13.0805 49.7355 13.0609 49.773 13.0437 49.8117C12.8861 50.1499 12.6007 50.4116 12.2501 50.5393C11.8996 50.6669 11.5127 50.6502 11.1746 50.4926C10.8364 50.335 10.5747 50.0496 10.447 49.699C10.3193 49.3485 10.3361 48.9616 10.4937 48.6234C10.528 48.5474 10.557 48.4691 10.5804 48.3891L15.9406 28.0148C16.0144 27.7298 15.9969 27.4287 15.8905 27.1541C15.7842 26.8795 15.5942 26.6453 15.3476 26.4844C15.1199 26.3344 14.8539 26.2531 14.5812 26.25C14.2608 26.2497 13.9499 26.3589 13.7 26.5594L5.3773 33.2344C5.33635 33.2657 5.29794 33.3001 5.26245 33.3375C4.99858 33.6014 4.6407 33.7496 4.26753 33.7496C3.89436 33.7496 3.53648 33.6014 3.27261 33.3375C3.00874 33.0736 2.8605 32.7157 2.8605 32.3426C2.8605 31.9694 3.00874 31.6115 3.27261 31.3477L3.33355 31.2844L13.9554 19.2398C14.3514 18.7911 14.8383 18.4318 15.3839 18.1857C15.9294 17.9396 16.521 17.8124 17.1195 17.8125H27.0429C27.6414 17.8124 28.233 17.9396 28.7786 18.1857C29.3241 18.4318 29.811 18.7911 30.207 19.2398L40.8312 31.2844L40.8921 31.3477C41.0227 31.4784 41.1263 31.6336 41.1968 31.8044C41.2674 31.9752 41.3036 32.1583 41.3034 32.3431C41.3032 32.5279 41.2665 32.7108 41.1956 32.8815C41.1246 33.0521 41.0207 33.2071 40.8898 33.3375Z" fill="var(--fill-0, white)" fill-opacity="0.55"/>
</svg>
