<svg preserveAspectRatio="none" width="100%" height="100%" overflow="visible" style="display: block;" viewBox="0 0 47.8125 42.1875" fill="none" xmlns="http://www.w3.org/2000/svg">
<path id="Vector" d="M42.6562 5.625H35.9086L32.5781 0.625782C32.4495 0.43298 32.2752 0.274961 32.0707 0.165784C31.8663 0.0566076 31.638 -0.000342005 31.4062 1.54517e-06H16.4062C16.1745 -0.000342005 15.9462 0.0566076 15.7418 0.165784C15.5373 0.274961 15.363 0.43298 15.2344 0.625782L11.9016 5.625H5.15625C3.78873 5.625 2.47721 6.16825 1.51023 7.13523C0.543246 8.10222 0 9.41373 0 10.7813V37.0312C0 38.3988 0.543246 39.7103 1.51023 40.6773C2.47721 41.6443 3.78873 42.1875 5.15625 42.1875H42.6562C44.0238 42.1875 45.3353 41.6443 46.3023 40.6773C47.2693 39.7103 47.8125 38.3988 47.8125 37.0312V10.7813C47.8125 9.41373 47.2693 8.10222 46.3023 7.13523C45.3353 6.16825 44.0238 5.625 42.6562 5.625ZM45 37.0312C45 37.6529 44.7531 38.249 44.3135 38.6885C43.874 39.1281 43.2779 39.375 42.6562 39.375H5.15625C4.53465 39.375 3.93851 39.1281 3.49897 38.6885C3.05943 38.249 2.8125 37.6529 2.8125 37.0312V10.7813C2.8125 10.1597 3.05943 9.56351 3.49897 9.12397C3.93851 8.68443 4.53465 8.4375 5.15625 8.4375H12.6562C12.888 8.43785 13.1163 8.38089 13.3207 8.27172C13.5252 8.16254 13.6995 8.00452 13.8281 7.81172L17.1586 2.8125H30.6516L33.9844 7.81172C34.113 8.00452 34.2873 8.16254 34.4918 8.27172C34.6962 8.38089 34.9245 8.43785 35.1562 8.4375H42.6562C43.2779 8.4375 43.874 8.68443 44.3135 9.12397C44.7531 9.56351 45 10.1597 45 10.7813V37.0312ZM23.9062 13.125C21.9593 13.125 20.0562 13.7023 18.4374 14.784C16.8186 15.8656 15.5569 17.403 14.8118 19.2017C14.0668 21.0004 13.8718 22.9797 14.2516 24.8892C14.6315 26.7987 15.569 28.5527 16.9457 29.9293C18.3223 31.306 20.0763 32.2435 21.9858 32.6234C23.8953 33.0032 25.8746 32.8082 27.6733 32.0632C29.472 31.3181 31.0094 30.0564 32.091 28.4376C33.1727 26.8189 33.75 24.9157 33.75 22.9688C33.75 20.358 32.7129 17.8542 30.8668 16.0082C29.0208 14.1621 26.517 13.125 23.9062 13.125ZM23.9062 30C22.5156 30 21.1562 29.5876 19.9999 28.815C18.8436 28.0424 17.9424 26.9443 17.4102 25.6595C16.878 24.3747 16.7388 22.961 17.0101 21.597C17.2814 20.2331 17.9511 18.9802 18.9344 17.9969C19.9177 17.0136 21.1706 16.3439 22.5345 16.0726C23.8985 15.8013 25.3122 15.9405 26.597 16.4727C27.8818 17.0049 28.9799 17.9061 29.7525 19.0624C30.5251 20.2187 30.9375 21.5781 30.9375 22.9688C30.9375 24.8336 30.1967 26.622 28.8781 27.9406C27.5595 29.2592 25.7711 30 23.9062 30Z" fill="var(--fill-0, white)" fill-opacity="0.55"/>
</svg>
