<svg preserveAspectRatio="none" width="100%" height="100%" overflow="visible" style="display: block;" viewBox="0 0 48.7515 48.7656" fill="none" xmlns="http://www.w3.org/2000/svg">
<path id="Vector" d="M33.7501 20.6391C33.7501 23.235 32.9803 25.7725 31.5381 27.9309C30.0959 30.0893 28.0461 31.7716 25.6478 32.765C23.2495 33.7584 20.6105 34.0183 18.0645 33.5119C15.5185 33.0055 13.1799 31.7554 11.3443 29.9199C9.50873 28.0843 8.2587 25.7456 7.75227 23.1996C7.24583 20.6536 7.50575 18.0146 8.49915 15.6164C9.49255 13.2181 11.1748 11.1682 13.3332 9.72604C15.4916 8.28385 18.0292 7.51408 20.6251 7.51408C24.106 7.51408 27.4444 8.89689 29.9058 11.3583C32.3673 13.8197 33.7501 17.1581 33.7501 20.6391ZM48.2016 48.2156C48.0275 48.39 47.8207 48.5283 47.5931 48.6226C47.3655 48.717 47.1215 48.7656 46.8751 48.7656C46.6287 48.7656 46.3847 48.717 46.1571 48.6226C45.9294 48.5283 45.7226 48.39 45.5485 48.2156L33.8157 36.4805C29.7355 39.875 24.5037 41.5658 19.2087 41.2013C13.9136 40.8368 8.96285 38.4451 5.38622 34.5236C1.80959 30.602 -0.117584 25.4527 0.00555785 20.1465C0.1287 14.8403 2.29268 9.78586 6.04737 6.03449C9.80207 2.28311 14.8584 0.123595 20.1647 0.00514258C25.471 -0.11331 30.6187 1.81842 34.537 5.39851C38.4554 8.9786 40.8428 13.9314 41.2026 19.2268C41.5624 24.5222 39.8669 29.7525 36.4688 33.8297L48.2016 45.5625C48.376 45.7367 48.5143 45.9434 48.6086 46.1711C48.703 46.3987 48.7515 46.6427 48.7515 46.8891C48.7515 47.1355 48.703 47.3795 48.6086 47.6071C48.5143 47.8347 48.376 48.0415 48.2016 48.2156ZM20.6251 37.5141C23.9626 37.5141 27.2252 36.5244 30.0003 34.6701C32.7754 32.8159 34.9383 30.1804 36.2155 27.0969C37.4928 24.0134 37.827 20.6204 37.1758 17.3469C36.5247 14.0735 34.9175 11.0667 32.5575 8.70665C30.1975 6.34664 27.1907 4.73945 23.9172 4.08833C20.6438 3.4372 17.2508 3.77138 14.1673 5.04861C11.0838 6.32584 8.44827 8.48875 6.59402 11.2638C4.73977 14.0389 3.75007 17.3015 3.75007 20.6391C3.75504 25.1131 5.53453 29.4024 8.69813 32.566C11.8617 35.7296 16.1511 37.5091 20.6251 37.5141Z" fill="var(--fill-0, white)"/>
</svg>
